#!OML:ASF Y:\EmotionMaleHayes\Project 1\Capture day 1\Session 1\Male1.ASF
:FULLY-SPECIFIED
:DEGREES
2419
root -29.5534 16.8668 0.843188 212.051 84.6896 -502.699
lowerback 8.14899 3.07255 3.30607
upperback 1.08201 4.48688 1.60778
thorax -3.31552 2.21645 -0.671131
lowerneck -19.9977 -1.68324 0.937679
upperneck 19.4645 -1.79497 -3.10896
head 9.40247 -1.09159 -1.47384
rclavicle -5.58756e-014 7.95139e-016
rhumerus -29.1562 11.9539 -79.5813
rradius 43.6671
rwrist -5.2968
rhand -7.6757 -31.0928
rfingers 7.12502
rthumb 18.2209 -60.2594
lclavicle -5.58756e-014 7.95139e-016
lhumerus -43.3865 -8.77654 88.6534
lradius 33.5016
lwrist -1.07262
lhand -13.4068 -21.6455
lfingers 7.12502
lthumb 12.701 7.94827
rfemur 13.0363 -13.015 21.0198
rtibia 5.82196
rfoot -20.8584 -7.63296
rtoes 13.1325
lfemur 0.534585 5.70945 -10.2451
ltibia 25.5275
lfoot -20.2038 2.74928
ltoes -7.51409
2420
root -29.5392 16.8683 0.836127 210.605 84.2111 -504.145
lowerback 7.99294 2.89105 3.26959
upperback 1.08699 4.24422 1.78366
thorax -3.24751 2.09987 -0.435938
lowerneck -19.9266 -1.68477 0.896838
upperneck 19.3472 -1.73842 -3.31278
head 9.34868 -1.0917 -1.52722
rclavicle 2.33324e-014 1.78906e-014
rhumerus -29.4386 12.2001 -79.8448
rradius 43.813
rwrist -5.07508
rhand -7.52331 -31.582
rfingers 7.12502
rthumb 18.3675 -60.7349
lclavicle 2.33324e-014 1.78906e-014
lhumerus -43.6079 -8.6346 89.0736
lradius 33.3508
lwrist -1.04337
lhand -13.8069 -22.4497
lfingers 7.12502
lthumb 12.3153 7.16761
rfemur 13.294 -12.8387 21.3634
rtibia 5.4182
rfoot -20.8649 -8.41679
rtoes 12.1554
lfemur 0.767883 5.03917 -10.2014
ltibia 24.8466
lfoot -19.7707 3.12261
ltoes -7.55808
2421
root -29.528 16.8687 0.823016 212.212 84.2058 -502.54
lowerback 7.88563 2.90252 3.33041
upperback 1.08026 4.26485 1.88285
thorax -3.19743 2.11138 -0.363614
lowerneck -19.8541 -1.69956 0.757668
upperneck 19.2764 -1.74017 -3.21959
head 9.31347 -1.09195 -1.47016
rclavicle -1.54151e-014 5.76476e-015
rhumerus -29.6725 12.4175 -80.1479
rradius 43.8505
rwrist -5.27544
rhand -7.49991 -31.8909
rfingers 7.12502
rthumb 18.39 -61.0416
lclavicle -1.54151e-014 5.76476e-015
lhumerus -43.851 -8.78797 89.5037
lradius 33.2986
lwrist -0.560701
lhand -13.1413 -21.6702
lfingers 7.12502
lthumb 12.957 7.90745
rfemur 13.3453 -12.8385 21.4727
rtibia 5.43961
rfoot -20.8686 -8.46068
rtoes 11.207
lfemur 1.20814 4.61028 -10.2333
ltibia 24.0448
lfoot -19.5516 4.88167
ltoes -11.6735
2422
root -29.5134 16.8706 0.807064 211.536 84.2653 -503.153
lowerback 7.79432 2.91281 3.26704
upperback 1.10588 4.26562 1.84269
thorax -3.1214 2.11356 -0.363635
lowerneck -19.7116 -1.75601 0.781588
upperneck 19.0868 -1.85003 -3.14412
head 9.21959 -1.13301 -1.45791
rclavicle -3.90084e-014 -2.44505e-014
rhumerus -29.8287 12.5542 -80.5459
rradius 43.7107
rwrist -5.38613
rhand -7.52055 -31.9134
rfingers 7.12502
rthumb 18.3701 -61.066
lclavicle -3.90084e-014 -2.44505e-014
lhumerus -44.1179 -9.14727 89.8911
lradius 33.3119
lwrist -0.000693869
lhand -13.1156 -21.9552
lfingers 7.12502
lthumb 12.9818 7.62091
rfemur 13.564 -12.9743 21.2096
rtibia 5.43175
rfoot -20.892 -8.28644
rtoes 11.0268
lfemur 1.69572 4.21277 -10.5439
ltibia 23.3794
lfoot -19.197 6.40559
ltoes -15.1735
2423
root -29.5099 16.8744 0.780896 208.922 84.6304 -505.762
lowerback 7.7669 2.97423 3.01381
upperback 1.15611 4.31412 1.6736
thorax -3.05797 2.13992 -0.398524
lowerneck -19.7397 -1.78228 1.01827
upperneck 18.885 -1.91965 -3.34647
head 9.14769 -1.17314 -1.57324
rclavicle -2.77522e-015 -2.22639e-014
rhumerus -29.923 12.7561 -81.0028
rradius 43.555
rwrist -4.98975
rhand -7.50543 -31.7854
rfingers 7.12502
rthumb 18.3847 -60.9366
lclavicle -2.77522e-015 -2.22639e-014
lhumerus -44.1635 -9.27056 90.1157
lradius 33.1116
lwrist -0.257208
lhand -12.3546 -21.5058
lfingers 7.12502
lthumb 13.7153 8.02224
rfemur 13.5464 -13.007 20.543
rtibia 5.6073
rfoot -20.7677 -8.0829
rtoes 10.4635
lfemur 1.94201 4.17117 -11.2183
ltibia 23.1086
lfoot -19.0393 6.76209
ltoes -15.0666
2424
root -29.5089 16.8687 0.760045 208.052 85.2229 -506.958
lowerback 7.42465 3.10507 2.61511
upperback 1.13565 4.4345 1.57976
thorax -2.90784 2.20402 -0.265507
lowerneck -19.8163 -1.74113 1.1679
upperneck 18.6739 -1.85818 -3.60116
head 9.08548 -1.16458 -1.67518
rclavicle 9.01675e-015 -2.0276e-014
rhumerus -30.0498 13.2051 -81.4548
rradius 43.5131
rwrist -4.35467
rhand -7.63915 -31.8018
rfingers 7.12502
rthumb 18.256 -60.9651
lclavicle 9.01675e-015 -2.0276e-014
lhumerus -44.055 -9.10276 90.3174
lradius 32.6586
lwrist -0.74637
lhand -12.2186 -21.4209
lfingers 7.12502
lthumb 13.8463 8.09823
rfemur 13.0088 -12.6543 20.1511
rtibia 5.88189
rfoot -20.6257 -8.14064
rtoes 9.33029
lfemur 1.77808 4.47902 -11.7763
ltibia 22.9794
lfoot -19.0781 6.53084
ltoes -12.5325
2425
root -29.4939 16.8715 0.745689 208.688 85.2152 -506.327
lowerback 7.25678 3.04991 2.60441
upperback 1.16677 4.35588 1.64317
thorax -2.78957 2.16766 -0.175875
lowerneck -19.8788 -1.72219 1.15111
upperneck 18.6 -1.8167 -3.66137
head 9.07192 -1.15431 -1.68745
rclavicle 2.5842e-015 -1.07344e-014
rhumerus -30.2089 13.4428 -81.8211
rradius 43.4918
rwrist -4.26833
rhand -7.68554 -31.8756
rfingers 7.12502
rthumb 18.2114 -61.0431
lclavicle 2.5842e-015 -1.07344e-014
lhumerus -44.1171 -9.07601 90.6395
lradius 32.3198
lwrist -0.640834
lhand -13.4948 -21.7275
lfingers 7.12502
lthumb 12.6162 7.87149
rfemur 13.1416 -12.322 20.3053
rtibia 5.66356
rfoot -20.5984 -8.53763
rtoes 8.6758
lfemur 2.05777 4.23949 -11.8166
ltibia 22.5095
lfoot -18.9092 6.59332
ltoes -10.6211
2426
root -29.4835 16.8736 0.731363 212.064 85.2524 -502.955
lowerback 7.21502 3.07848 2.7992
upperback 1.11565 4.41138 1.70882
thorax -2.80873 2.19319 -0.220611
lowerneck -19.9242 -1.77541 1.10974
upperneck 18.6478 -1.88684 -3.61755
head 9.0955 -1.18549 -1.6764
rclavicle 1.57941e-014 6.16232e-015
rhumerus -30.3918 13.2708 -82.0671
rradius 43.3677
rwrist -4.85129
rhand -7.58922 -31.5299
rfingers 7.12502
rthumb 18.3041 -60.6887
lclavicle 1.57941e-014 6.16232e-015
lhumerus -44.3338 -9.2865 90.9807
lradius 32.135
lwrist -0.413137
lhand -12.7579 -21.496
lfingers 7.12502
lthumb 13.3266 8.05784
rfemur 13.1591 -12.1521 20.5705
rtibia 5.60546
rfoot -20.5647 -8.57491
rtoes 8.76869
lfemur 2.37 4.0317 -11.6784
ltibia 21.967
lfoot -18.71 7.17779
ltoes -10.4933
2427
root -29.4779 16.8792 0.711894 210.609 85.4234 -504.432
lowerback 7.24399 3.08576 2.62217
upperback 1.01984 4.4076 1.67334
thorax -2.93448 2.18935 -0.163982
lowerneck -19.7414 -1.82521 1.05767
upperneck 18.5825 -1.93637 -3.63251
head 9.03941 -1.21253 -1.6755
rclavicle 2.8156e-015 -1.47101e-014
rhumerus -30.7513 13.4134 -82.4649
rradius 43.2367
rwrist -4.60172
rhand -7.91558 -31.2363
rfingers 7.12502
rthumb 17.9901 -60.4242
lclavicle 2.8156e-015 -1.47101e-014
lhumerus -44.5274 -9.35303 91.2795
lradius 31.83
lwrist -0.503138
lhand -12.5711 -21.6636
lfingers 7.12502
lthumb 13.5066 7.87838
rfemur 13.1366 -12.1635 20.2319
rtibia 5.70832
rfoot -20.5864 -8.47969
rtoes 9.11662
lfemur 2.5492 3.83514 -12.0747
ltibia 21.6408
lfoot -18.6134 7.53004
ltoes -10.885
2428
root -29.4683 16.8868 0.691291 206.843 85.4129 -508.286
lowerback 7.08639 2.96928 2.36956
upperback 0.960864 4.22514 1.63827
thorax -2.92646 2.09995 -0.0360232
lowerneck -19.4986 -1.81844 1.02296
upperneck 18.4059 -1.90746 -3.68835
head 8.93596 -1.20602 -1.67831
rclavicle -2.03762e-014 -1.47101e-014
rhumerus -30.9686 13.385 -82.7353
rradius 43.1944
rwrist -4.78064
rhand -7.53831 -31.5911
rfingers 7.12502
rthumb 18.353 -60.7453
lclavicle -2.03762e-014 -1.47101e-014
lhumerus -44.6809 -9.35797 91.5757
lradius 31.546
lwrist -0.575644
lhand -12.4092 -21.8243
lfingers 7.12502
lthumb 13.6627 7.70731
rfemur 13.1364 -11.9413 19.9711
rtibia 5.62842
rfoot -20.6921 -8.8077
rtoes 9.48897
lfemur 2.58018 3.47921 -12.574
ltibia 21.417
lfoot -18.5227 7.48114
ltoes -10.1958
2429
root -29.4682 16.8918 0.677393 211.405 85.8302 -503.846
lowerback 6.99215 3.08216 2.19847
upperback 0.91177 4.36698 1.81225
thorax -2.94902 2.17319 0.228178
lowerneck -19.5255 -1.78012 1.00375
upperneck 18.3613 -1.80778 -3.87323
head 8.9268 -1.18137 -1.72515
rclavicle -2.41648e-015 -8.34896e-015
rhumerus -31.2913 13.7919 -83.0204
rradius 43.2956
rwrist -4.38002
rhand -7.62546 -31.8082
rfingers 7.12502
rthumb 18.2692 -60.9703
lclavicle -2.41648e-015 -8.34896e-015
lhumerus -44.8055 -9.29737 91.9798
lradius 31.338
lwrist -0.734571
lhand -11.9226 -21.6633
lfingers 7.12502
lthumb 14.1316 7.83613
rfemur 12.7612 -11.0149 20.3912
rtibia 5.7473
rfoot -20.7976 -9.17542
rtoes 10.3095
lfemur 2.69117 3.6909 -12.5356
ltibia 21.1252
lfoot -18.4765 7.61607
ltoes -8.92548
2430
root -29.4458 16.9074 0.669116 203.056 85.1419 -512.001
lowerback 6.93505 2.74222 1.85911
upperback 0.999214 3.88474 1.79375
thorax -2.85216 1.93861 0.447415
lowerneck -19.6361 -1.73615 1.11533
upperneck 18.3879 -1.75783 -3.97394
head 8.9548 -1.1624 -1.77371
rclavicle 1.29e-014 -8.74653e-015
rhumerus -31.5318 13.7701 -83.2859
rradius 43.2614
rwrist -4.3749
rhand -7.6509 -32.2651
rfingers 7.12502
rthumb 18.2447 -61.4294
lclavicle 1.29e-014 -8.74653e-015
lhumerus -44.8324 -9.35017 92.1622
lradius 31.0779
lwrist -1.10837
lhand -11.5755 -21.3765
lfingers 7.12502
lthumb 14.4661 8.09925
rfemur 13.448 -10.574 20.3818
rtibia 5.03215
rfoot -21.0318 -10.2732
rtoes 11.0574
lfemur 2.93872 2.92471 -12.8923
ltibia 20.9151
lfoot -18.3209 7.48842
ltoes -8.91586
2431
root -29.4366 16.92 0.656306 198.153 85.3942 -516.874
lowerback 6.95197 2.77867 1.39406
upperback 1.00256 3.88949 1.6176
thorax -2.87645 1.94328 0.523672
lowerneck -19.7891 -1.71588 1.24335
upperneck 18.4658 -1.75889 -4.01255
head 9.00689 -1.15969 -1.81196
rclavicle 1.47578e-014 1.0138e-014
rhumerus -31.7518 13.4135 -83.5215
rradius 43.1276
rwrist -4.55196
rhand -7.45944 -32.5855
rfingers 7.12502
rthumb 18.4289 -61.7325
lclavicle 1.47578e-014 1.0138e-014
lhumerus -44.9254 -9.65626 92.3479
lradius 30.9112
lwrist -1.35993
lhand -11.5279 -21.1132
lfingers 7.12502
lthumb 14.5119 8.35926
rfemur 13.5161 -10.2969 19.8208
rtibia 5.01067
rfoot -21.0781 -10.3214
rtoes 10.9503
lfemur 3.23586 2.81004 -13.5412
ltibia 20.5254
lfoot -18.2484 7.63319
ltoes -8.99085
2432
root -29.4396 16.9185 0.631126 197.894 86.1521 -517.405
lowerback 6.74728 2.9786 1.20791
upperback 0.933482 4.12973 1.47679
thorax -2.83651 2.0625 0.469773
lowerneck -19.9745 -1.66752 1.3708
upperneck 18.4993 -1.70392 -4.13521
head 9.05061 -1.14063 -1.87144
rclavicle 2.36701e-014 -7.95139e-016
rhumerus -31.9064 13.2281 -83.7791
rradius 43.0068
rwrist -4.67514
rhand -7.33294 -32.4336
rfingers 7.12502
rthumb 18.5506 -61.5691
lclavicle 2.36701e-014 -7.95139e-016
lhumerus -45.0501 -10.0325 92.6133
lradius 30.8697
lwrist -1.23839
lhand -11.9255 -21.0273
lfingers 7.12502
lthumb 14.1288 8.47235
rfemur 12.8623 -10.252 19.2739
rtibia 5.54411
rfoot -21.0856 -9.56105
rtoes 11.6663
lfemur 3.34675 2.92487 -14.1146
ltibia 19.9514
lfoot -18.3007 8.01948
ltoes -7.81772
